#define col16_width 12
#define col16_height 12
static unsigned char col16_bits[] = {
   0x00, 0x00, 0x00, 0x00, 0xfc, 0x03, 0xfc, 0x03, 0xfc, 0x03, 0xfc, 0x03,
   0xfc, 0x03, 0x00, 0x00, 0xfc, 0x03, 0xfc, 0x03, 0xfc, 0x03, 0x00, 0x00 };
